<svg width="720" height="560" viewBox="0 0 720 560" fill="none" xmlns="http://www.w3.org/2000/svg">
  <rect width="720" height="560" rx="36" fill="#F8F4EE"/>
  <rect x="52" y="56" width="616" height="448" rx="32" fill="#FFFFFF" stroke="#E7DDD2" stroke-width="4"/>
  <text x="92" y="120" fill="#17120E" font-size="38" font-family="Fraunces, serif" font-weight="700">Profit stack</text>
  <circle cx="250" cy="286" r="108" fill="#F7F4EF"/>
  <path d="M250 286 L250 178 A108 108 0 0 1 354 330 Z" fill="#17120E"/>
  <path d="M250 286 L354 330 A108 108 0 0 1 186 374 Z" fill="#10B981"/>
  <path d="M250 286 L186 374 A108 108 0 0 1 142 214 Z" fill="#38BDF8"/>
  <path d="M250 286 L142 214 A108 108 0 0 1 250 178 Z" fill="#FBBF24"/>
  <rect x="420" y="194" width="170" height="26" rx="13" fill="#17120E"/>
  <rect x="420" y="250" width="170" height="26" rx="13" fill="#10B981"/>
  <rect x="420" y="306" width="170" height="26" rx="13" fill="#38BDF8"/>
  <rect x="420" y="362" width="170" height="26" rx="13" fill="#FBBF24"/>
  <text x="420" y="184" fill="#7A6D63" font-size="18" font-family="Source Sans 3, sans-serif">Acquisition</text>
  <text x="420" y="240" fill="#7A6D63" font-size="18" font-family="Source Sans 3, sans-serif">Profit</text>
  <text x="420" y="296" fill="#7A6D63" font-size="18" font-family="Source Sans 3, sans-serif">Carry</text>
  <text x="420" y="352" fill="#7A6D63" font-size="18" font-family="Source Sans 3, sans-serif">Rehab</text>
</svg>
